<?xml version="1.0" encoding="UTF-8" standalone="no"?>
<!-- Created with Inkscape (http://www.inkscape.org/) -->

<svg
   xmlns:dc="http://purl.org/dc/elements/1.1/"
   xmlns:cc="http://creativecommons.org/ns#"
   xmlns:rdf="http://www.w3.org/1999/02/22-rdf-syntax-ns#"
   xmlns:svg="http://www.w3.org/2000/svg"
   xmlns="http://www.w3.org/2000/svg"
   xmlns:sodipodi="http://sodipodi.sourceforge.net/DTD/sodipodi-0.dtd"
   xmlns:inkscape="http://www.inkscape.org/namespaces/inkscape"
   width="210mm"
   height="297mm"
   viewBox="0 0 744.09448819 1052.3622047"
   id="svg2"
   version="1.1"
   inkscape:version="0.92.2 (5c3e80d, 2017-08-06)"
   sodipodi:docname="_my_aircraft_icon.svg">
  <defs
     id="defs4" />
  <sodipodi:namedview
     id="base"
     pagecolor="#ffffff"
     bordercolor="#666666"
     borderopacity="1.0"
     inkscape:pageopacity="0.0"
     inkscape:pageshadow="2"
     inkscape:zoom="0.12374369"
     inkscape:cx="182.30028"
     inkscape:cy="488.08002"
     inkscape:document-units="px"
     inkscape:current-layer="layer1"
     showgrid="false"
     inkscape:window-width="1920"
     inkscape:window-height="1027"
     inkscape:window-x="-8"
     inkscape:window-y="-8"
     inkscape:window-maximized="1" />
  <metadata
     id="metadata7">
    <rdf:RDF>
      <cc:Work
         rdf:about="">
        <dc:format>image/svg+xml</dc:format>
        <dc:type
           rdf:resource="http://purl.org/dc/dcmitype/StillImage" />
        <dc:title></dc:title>
      </cc:Work>
    </rdf:RDF>
  </metadata>
  <g
     inkscape:label="Calque 1"
     inkscape:groupmode="layer"
     id="layer1"
     style="display:inline">
    <path
       inkscape:connector-curvature="0"
       id="path3713"
       d="m 367.93246,1019.2351 -0.002,-21.38594 -2.72593,-1.4135 -2.72593,-1.4136 -0.0935,-9.93707 -0.0935,-9.93711 -25.76024,-0.0889 -25.76021,-0.0889 -0.78395,-4.57648 c -0.43117,-2.5168 -1.66803,-9.72963 -2.74862,-16.02854 -1.08056,-6.29859 -1.96467,-11.56602 -1.96467,-11.705 0,-0.13832 -3.45083,-0.25359 -7.6685,-0.25359 h -7.66853 l -1.4616,-25.73379 c -0.80385,-14.15395 -1.51143,-25.78386 -1.57236,-25.84479 -0.0609,-0.0626 -3.59581,-0.44658 -7.85526,-0.85693 -4.25949,-0.41003 -15.58595,-1.52451 -25.16994,-2.4763 -9.58396,-0.95178 -19.96001,-1.95857 -23.05786,-2.23752 -5.63533,-0.50783 -19.53108,-1.90554 -51.57219,-5.18766 -9.39038,-0.96193 -17.62784,-1.74335 -18.30552,-1.7365 -0.67764,0.007 -8.8359,-0.7722 -18.12945,-1.73116 -9.29355,-0.959 -19.43198,-1.97303 -22.52983,-2.2534 -3.09785,-0.28026 -11.33532,-1.08698 -18.30548,-1.79239 -33.764273,-3.41711 -47.424613,-4.76064 -50.164103,-4.93377 -1.64574,-0.10407 -3.98232,-0.29278 -5.19241,-0.41955 l -2.20017,-0.23053 -0.007,6.65068 c -0.01,7.523 0.15874,7.00264 -3.16046,9.80679 -2.93328,2.47794 -6.45611,4.17304 -8.7455,4.20795 -1.68377,0.0329 -1.96957,-0.0823 -2.72649,-1.02754 l -0.84554,-1.05618 -0.002,-93.5515 c -0.002,-89.92292 0.0231,-93.55159 0.63318,-93.55159 0.85118,0 4.06699,1.62327 4.72297,2.38401 0.4944,0.57341 0.96871,3.23535 1.82677,10.25215 0.26281,2.14791 0.51525,3.99918 0.96575,7.07744 0.21242,1.45211 0.42653,3.03623 0.47556,3.52026 0.20353,2.00879 0.57654,4.78765 0.70867,5.28043 0.19234,0.71747 0.43664,2.9294 0.87166,7.89179 0.20123,2.29727 0.44059,4.51088 0.53155,4.91909 0.71509,3.2092 1.28649,11.58133 1.26397,18.51969 l -0.0264,7.92064 2.72465,-2.86847 c 3.91724,-4.124 5.21888,-5.52803 11.8635,-12.79681 5.84706,-6.39634 8.61317,-9.38676 9.7293,-10.51843 0.30957,-0.31386 3.24928,-3.51031 6.53297,-7.10345 3.28373,-3.59318 6.278,-6.85961 6.65398,-7.2588 0.376,-0.39919 1.48603,-1.57806 2.4668,-2.61975 0.98077,-1.0417 4.3768,-4.7454 7.54671,-8.23048 3.16994,-3.48509 6.09018,-6.66768 6.48947,-7.07244 1.18334,-1.19954 3.60747,-3.81982 9.740823,-10.52899 3.18598,-3.48509 6.18371,-6.74889 6.66161,-7.25287 2.38638,-2.5168 4.58185,-4.89999 9.8577,-10.70058 3.16982,-3.48509 6.08755,-6.66919 6.48388,-7.07583 1.56402,-1.60453 4.53261,-4.81017 9.91023,-10.70163 3.09278,-3.38826 6.01305,-6.57286 6.48947,-7.07684 2.60948,-2.76048 4.64824,-4.96734 9.8855,-10.70058 3.18358,-3.48509 6.17933,-6.74721 6.6572,-7.24912 1.33675,-1.404 3.35955,-3.59894 7.91834,-8.5922 6.41207,-7.02319 6.97804,-7.63714 7.76315,-8.42176 0.40232,-0.40202 3.48051,-3.74081 6.84041,-7.41952 8.01523,-8.77566 8.83837,-9.66873 9.70934,-10.53396 0.75194,-0.74698 11.97857,-12.98401 14.21873,-15.49844 0.68133,-0.76473 1.6511,-1.7944 2.15509,-2.28818 0.50398,-0.49377 3.58329,-3.82842 6.84291,-7.41033 7.53219,-8.27688 8.6222,-9.46319 9.51754,-10.35793 0.40231,-0.40203 3.42135,-3.67077 6.709,-7.26394 3.28765,-3.59315 6.28518,-6.85958 6.66115,-7.25881 0.37598,-0.39919 1.48604,-1.57805 2.46681,-2.61975 0.98077,-1.04169 4.31363,-4.66615 7.40641,-8.05445 3.09278,-3.38826 6.01305,-6.56623 6.48947,-7.06215 3.01288,-3.13592 8.04964,-8.72739 8.82685,-9.79892 2.10575,-2.90311 4.22125,-12.37704 4.77134,-21.36777 0.17192,-2.80997 0.12186,-3.66256 -0.21472,-3.66256 -0.24141,0 -3.23568,0.6289 -6.65404,1.39751 -3.41833,0.76864 -6.92802,1.49533 -7.79928,1.61484 -0.87127,0.11955 -5.16725,0.99556 -9.54665,1.94675 -4.37937,0.95123 -8.27415,1.72945 -8.65506,1.72945 -0.38091,0 -4.22952,0.79206 -8.55248,1.76015 -4.32295,0.96805 -8.15078,1.76014 -8.5063,1.76014 -0.61803,0 -0.64645,-0.72447 -0.64645,-16.48144 0,-13.51408 0.0935,-16.79682 0.52015,-18.233 0.38691,-1.30286 1.20867,-2.51406 3.20802,-4.72827 1.47833,-1.6372 2.79894,-3.05596 2.93466,-3.15275 0.13569,-0.0968 2.37334,-2.473 4.97247,-5.28044 2.59914,-2.80744 4.98674,-5.34202 5.30577,-5.63246 0.31912,-0.29048 2.54538,-2.66662 4.94751,-5.28044 2.40209,-2.61379 4.75675,-5.15233 5.23258,-5.6411 0.47583,-0.4888 2.60766,-2.76884 4.73746,-5.06682 2.12976,-2.29793 4.50597,-4.83096 5.2804,-5.62898 0.77447,-0.79802 2.67544,-2.81297 4.22435,-4.47778 9.11258,-9.79417 10.99722,-11.81288 11.77923,-12.61712 0.47649,-0.49006 2.86442,-3.02955 5.30649,-5.64337 2.4421,-2.61379 4.90822,-5.24642 5.48028,-5.85029 0.57202,-0.60384 2.58006,-2.76091 4.46229,-4.79348 l 3.42238,-3.6956 -0.007,-3.30316 -0.003,-3.30316 6.67153,-6.51255 c 3.77178,-3.68187 6.77191,-6.89505 6.90239,-7.39262 0.1268,-0.48402 1.47659,-4.76117 2.99922,-9.50475 4.84739,-15.10152 9.58679,-30.9787 13.50308,-45.2357 4.56449,-16.61687 6.18585,-23.77302 9.53113,-42.0674 1.79832,-9.83459 2.79914,-15.81381 10.37059,-61.95704 5.81228,-35.42235 8.00455,-46.46129 16.70862,-84.13483 5.83833,-25.26996 15.79412,-66.042741 16.23336,-66.481979 0.0929,-0.09287 0.24535,-0.09221 0.33882,0.0013 0.48752,0.487518 11.93619,47.661409 18.09922,74.577369 7.09568,30.98897 9.22966,41.92137 14.80791,75.86217 1.7502,10.64887 4.38109,26.64856 5.84647,35.55488 4.42423,26.8899 7.21471,41.68441 10.05943,53.33233 3.63082,14.86687 10.79684,39.59652 17.54557,60.54892 1.5279,4.74358 2.88058,9.04648 3.00596,9.56199 0.13865,0.56979 2.18483,2.84729 5.21872,5.8085 2.74493,2.67913 5.38122,5.42561 5.85836,6.10329 0.47715,0.67768 1.16365,1.47576 1.52563,1.77358 0.52157,0.42916 0.6976,1.19573 0.84887,3.69629 l 0.19101,3.15483 3.37301,3.65449 c 1.8552,2.00995 3.84114,4.14854 4.4132,4.75238 0.57202,0.60384 3.03817,3.23647 5.48027,5.85026 2.44204,2.61382 4.83001,5.15334 5.30646,5.64337 0.78205,0.80424 2.66668,2.82301 11.77926,12.61712 1.54891,1.66484 3.44988,3.67976 4.22432,4.47781 0.77447,0.79802 3.15067,3.33102 5.28043,5.62898 2.12977,2.29799 4.26164,4.57799 4.73746,5.06683 0.4758,0.4888 2.8305,3.0273 5.23259,5.64106 2.40212,2.61382 4.62848,4.99003 4.94747,5.28044 0.31913,0.29047 2.64574,2.74582 5.17038,5.45643 2.52467,2.71068 5.62858,6.03736 6.89752,7.39262 1.269,1.35532 2.84501,3.08454 3.50221,3.84274 l 1.19497,1.37854 0.0975,17.719 c 0.0939,17.08496 0.0741,17.71903 -0.55839,17.71903 -0.36073,0 -4.1928,-0.79209 -8.51572,-1.76014 -4.32296,-0.96809 -8.1716,-1.76015 -8.55248,-1.76015 -0.38094,0 -4.27572,-0.77822 -8.65509,-1.72945 -4.37937,-0.95119 -8.67535,-1.8272 -9.54662,-1.94675 -0.87126,-0.11955 -4.38098,-0.8462 -7.79931,-1.61481 -3.41833,-0.76861 -6.38856,-1.39754 -6.60052,-1.39754 -0.5355,0 -0.48742,2.82832 0.13898,8.1846 0.91306,7.80547 2.63889,14.46748 4.36392,16.84576 0.77724,1.0715 5.814,6.663 8.82685,9.79889 0.47642,0.49592 3.39672,3.67389 6.48947,7.06215 3.09278,3.3883 6.42568,7.01279 7.40644,8.05449 0.98074,1.04169 2.09084,2.22056 2.46681,2.61978 0.37594,0.39919 3.37347,3.66563 6.66115,7.25877 3.28762,3.59317 6.30669,6.86192 6.70898,7.26391 0.89537,0.89474 1.98538,2.08105 9.51756,10.35793 3.25962,3.58191 6.3389,6.91656 6.84292,7.41037 0.50395,0.49377 1.47375,1.52348 2.15505,2.28817 2.24016,2.51443 13.46682,14.75147 14.21873,15.49844 0.87097,0.86523 1.69415,1.7583 9.70934,10.53397 3.35994,3.6787 6.43813,7.01749 6.84041,7.41952 0.78514,0.78461 1.35108,1.39856 7.76319,8.42179 4.55876,4.99322 6.58155,7.18816 7.91833,8.59216 0.47787,0.50191 3.47363,3.76403 6.6572,7.24912 5.23723,5.73324 7.27603,7.9401 9.88547,10.70058 0.47642,0.50398 3.39673,3.68858 6.48947,7.07684 5.37766,5.89146 8.34621,9.0971 9.91024,10.70164 0.39635,0.40663 3.31409,3.59073 6.4839,7.07582 5.27583,5.80059 7.47132,8.18378 9.85771,10.70058 0.4779,0.50398 3.4756,3.76779 6.66158,7.25287 6.13335,6.70917 8.55751,9.32945 9.74082,10.529 0.39929,0.40479 3.31956,3.58734 6.48947,7.07243 3.16994,3.48508 6.56597,7.18878 7.54671,8.23048 0.98077,1.04169 2.09083,2.22056 2.46681,2.61975 0.37597,0.39922 3.37455,3.66566 6.66345,7.2588 5.77168,6.30554 8.58103,9.33963 9.75828,10.53888 0.30793,0.31386 3.23469,3.50112 6.5039,7.083 6.62944,7.2636 7.93058,8.66783 11.85761,12.79681 l 2.72813,2.86847 -0.003,-7.21658 c -0.003,-3.96915 0.0576,-7.69185 0.13338,-8.27267 0.0754,-0.58085 0.24602,-1.92738 0.3791,-2.99226 0.13305,-1.06489 0.53689,-4.07474 0.89745,-6.68853 0.36049,-2.61382 0.76008,-5.70287 0.88792,-6.86458 0.12779,-1.16167 1.01624,-8.05264 1.97425,-15.31322 0.95801,-7.26061 1.88401,-14.30439 2.05774,-15.65287 0.2167,-1.68153 0.51679,-2.60595 0.95541,-2.94263 0.94862,-0.72813 3.36652,-1.8056 4.0718,-1.81443 0.58517,-0.007 0.61599,4.67818 0.61428,93.54386 v 93.55147 l -0.84554,1.05618 c -0.75689,0.94553 -1.04269,1.05323 -2.72649,1.02754 -2.28939,-0.0362 -5.81219,-1.73001 -8.74547,-4.20795 -3.31926,-2.80412 -3.15156,-2.28376 -3.16042,-9.80679 l -0.007,-6.65068 -2.20017,0.23053 c -1.21012,0.1268 -3.54671,0.31551 -5.19244,0.41955 -2.73947,0.17323 -16.39981,1.51666 -50.16408,4.93377 -6.97017,0.70541 -15.20763,1.51199 -18.30548,1.79239 -3.09785,0.28027 -13.23628,1.2944 -22.52983,2.2534 -9.29355,0.95896 -17.45184,1.73798 -18.12949,1.73116 -0.67764,-0.007 -8.91511,0.77457 -18.30548,1.7365 -32.04111,3.28212 -45.93686,4.67983 -51.57219,5.18766 -3.09785,0.27994 -13.4739,1.28574 -23.0579,2.23752 -9.58396,0.95179 -20.91041,2.06627 -25.1699,2.4763 -4.25946,0.41035 -7.79437,0.79568 -7.85527,0.85693 -0.0609,0.0626 -0.76851,11.69084 -1.57235,25.84479 l -1.46164,25.73379 h -7.6685 c -4.21766,0 -7.66849,0.11527 -7.66849,0.25359 0,0.13832 -0.88411,5.40641 -1.96467,11.705 -1.08056,6.29891 -2.31745,13.51174 -2.74862,16.02854 l -0.78396,4.57648 -25.76024,0.0889 -25.76021,0.0889 -0.0935,9.94271 -0.0935,9.94235 -2.72823,1.377 -2.72821,1.3773 v 21.41684 21.4165 h -5.27974 -5.28044 l -0.002,-21.3855 z"
       style="display:inline;fill:#aa0000;stroke-width:0.35202864" />
  </g>
</svg>
